<svg width="100" height="100" viewBox="0 0 100 100" fill="none" xmlns="http://www.w3.org/2000/svg">
<path d="M96.49 3.5V64.945C96.4826 73.2997 93.1604 81.3101 87.2527 87.2177C81.3451 93.1254 73.3347 96.4476 64.98 96.455H3.5V3.5H96.49ZM99.99 0H0V99.987H64.945C69.5425 99.9881 74.0952 99.0833 78.343 97.3244C82.5908 95.5655 86.4504 92.987 89.7014 89.7361C92.9524 86.4852 95.531 82.6256 97.29 78.3779C99.049 74.1302 99.9539 69.5775 99.953 64.98V0H99.988H99.99Z" fill="#3E9EC4"/>
<path d="M56.616 43.541C56.231 44.136 55.8821 44.695 55.4621 45.255L55.252 45.57L54.727 46.304C52.3732 49.4454 49.5843 52.2357 46.444 54.591C45.605 55.221 44.66 55.885 43.576 56.549V77.814H56.616V56.621H77.8161V43.576H56.586L56.616 43.541Z" fill="#3E9EC4"/>
<path d="M22.208 43.227V56.271C28.4528 56.1942 34.5586 54.4169 39.869 51.13C40.918 50.466 41.758 49.908 42.558 49.308C45.1821 47.3135 47.5235 44.9721 49.518 42.348C49.618 42.208 49.728 42.033 49.833 41.858C49.9383 41.7264 50.032 41.5858 50.113 41.438C54.1511 35.7525 56.3603 28.9711 56.446 21.998H43.402C43.2518 27.5716 40.9706 32.8755 37.0281 36.8181C33.0855 40.7606 27.7816 43.0418 22.208 43.192V43.227Z" fill="#3E9EC4"/>
</svg>
